<?xml version="1.0" standalone="no"?><svg xmlns="http://www.w3.org/2000/svg" viewBox="0 0 1440 320"><path fill="#a2d9ff" fill-opacity="1" d="M0,128L15,117.3C30,107,60,85,90,117.3C120,149,150,235,180,245.3C210,256,240,192,270,192C300,192,330,256,360,277.3C390,299,420,277,450,245.3C480,213,510,171,540,160C570,149,600,171,630,154.7C660,139,690,85,720,101.3C750,117,780,203,810,218.7C840,235,870,181,900,144C930,107,960,85,990,74.7C1020,64,1050,64,1080,90.7C1110,117,1140,171,1170,170.7C1200,171,1230,117,1260,90.7C1290,64,1320,64,1350,90.7C1380,117,1410,171,1425,197.3L1440,224L1440,320L1425,320C1410,320,1380,320,1350,320C1320,320,1290,320,1260,320C1230,320,1200,320,1170,320C1140,320,1110,320,1080,320C1050,320,1020,320,990,320C960,320,930,320,900,320C870,320,840,320,810,320C780,320,750,320,720,320C690,320,660,320,630,320C600,320,570,320,540,320C510,320,480,320,450,320C420,320,390,320,360,320C330,320,300,320,270,320C240,320,210,320,180,320C150,320,120,320,90,320C60,320,30,320,15,320L0,320Z"></path></svg>